<?xml version="1.0" encoding="utf-8"?>
<!-- Generator: Adobe Illustrator 18.1.0, SVG Export Plug-In . SVG Version: 6.00 Build 0)  -->
<!DOCTYPE svg PUBLIC "-//W3C//DTD SVG 1.1//EN" "http://www.w3.org/Graphics/SVG/1.1/DTD/svg11.dtd">
<svg version="1.1" id="Layer_1" xmlns="http://www.w3.org/2000/svg" xmlns:xlink="http://www.w3.org/1999/xlink" x="0px" y="0px"
	 viewBox="0 0 1097.4 404.2" enable-background="new 0 0 1097.4 404.2" xml:space="preserve">
<path fill="#FFFFFF" d="M956.5,339.2c-4.3,4.1-8.4,8.3-12.8,12.2c-13.6,12.2-28.4,22.6-45.7,28.9c-29.4,10.6-66.1,2.5-85.3-28.1
	c-0.2-0.3-0.4-0.5-0.7-0.9c-2.6,1.9-5.1,3.8-7.6,5.6c-13,9.3-26.3,18.2-41.4,23.9c-4.8,1.8-9.9,3.3-14.9,3.6
	c-10.1,0.7-18.8-3.4-26.6-9.6c-8.4-6.7-14.4-15.2-18.5-25c-0.3-0.8-0.6-1.5-1-2.3c-0.1-0.1-0.2-0.2-0.2-0.3
	c-5.6,5-11.1,10.3-17,15.1c-11.6,9.5-24.3,17-39,20.7c-26.9,6.7-50.2-6.4-59.4-33.1c-6.4-18.5-6.2-37.4-1.2-56.1
	c2.2-8.2,5.7-16.1,8.9-24.1c0.9-2.3,1.1-3.4-0.8-5.4c-12.8-13.1-26.9-24.6-42.3-34.5c-0.3-0.2-1.8-0.9-2.6-0.5
	c-0.8,0.4-0.9,1.9-0.5,2.7c7.8,16,10.9,33,10.8,50.6c-0.2,29.1-9.1,55.2-28.6,77.2c-11.2,12.6-25,21.2-41.9,23.9
	c-25.8,4.1-47.3-4.7-62.2-27.9c-0.7-1-1.3-2.1-1.9-3.2c-4,2.1-7.8,4.3-11.8,6.2c-8.8,4.1-18.1,6.2-27.9,4.9
	c-13-1.7-21.5-9.1-25.9-21.3c-1.3-3.6-2.1-7.5-3.2-11.6c-0.7,1.1-1.3,2.1-1.9,3c-11.7,18.9-25.2,36.2-43.1,49.7
	c-13.4,10.1-28.2,17.4-45,19.7c-16,2.2-31.3,0.7-44.7-9.5c-9-6.9-15.7-15.8-20.7-25.9c-6.8-13.7-10.6-28.3-12.9-43.4
	c-2.7-17.5-3.8-35.1-3.4-52.8c0.1-4.9,0.7-9.8,1.1-14.7c0.1-1.1,0.2-2.1,0.1-3.2c-2.1,10.1-4.1,20.3-6.4,30.4
	c-5.4,23.3-12.5,45.9-23.9,67c-6.2,11.4-13.7,21.8-23.4,30.6c-13.7,12.5-30,18.9-48.1,21.1c-6.9,0.8-14,1.4-20.9,0.7
	c-13.1-1.2-23-8.5-31.3-18.4c-10.3-12.3-16.3-26.8-20.8-41.9c-6.5-21.8-9-44.1-9.6-66.8c-0.5-20.9,0.6-41.6,3.2-62.3
	c3.8-30.5,10.1-60.4,19.9-89.5c4.7-14,10.2-27.8,15.7-41.5c1.6-4,4.2-7.6,6.7-11.1c6-8.3,14.1-13.4,24.6-13.5
	c4.7-0.1,9.3-0.1,14,0.4c6.7,0.7,10.4,4.6,11.5,11.2c1.4,8.4-0.1,16.6-2.3,24.7c-6.8,25.6-13.9,51-20.9,76.5
	c-7.4,26.8-13.9,53.8-18.2,81.3c-3.2,20.8-4.3,41.7-1.1,62.7c1.3,8.8,3.4,17.3,7.5,25.3c1.2,2.4,2.6,4.7,4.2,6.8
	c7.8,10.2,18.8,12.8,30.4,7.2c8.7-4.2,15.3-10.9,21.1-18.4c10.8-13.8,18.4-29.5,25.3-45.5c13.4-30.8,23-62.8,31.5-95.1
	c7.5-28.3,13.5-57,19.1-85.7c1.3-6.6,3.5-13.2,6-19.5c4.9-12.2,14.3-18.7,27.5-19.4c6.5-0.3,13-0.4,19.3,1.8
	c8.3,2.9,12.4,9,11.2,17.7c-1.6,12-3.6,23.9-5.3,35.8c-3.2,21.9-6.5,43.8-9.2,65.8c-2.3,18.6-4.2,37.2-5.8,55.9
	c-2.2,26-2.7,52.1,0.3,78.1c1,8.8,2.7,17.4,6.4,25.6c5.7,12.5,14.5,17,29.3,11.4c7.2-2.7,12.4-7.9,17.2-13.6
	c10.2-12.1,16.8-26.1,22.6-40.6c8.6-21.6,13.9-44.1,18.4-66.8c3-15.3,6.2-30.7,8.6-46.1c2.4-16,4-32.1,5.9-48.1
	c2.1-17.3,4.2-34.5,6.3-51.8c0.7-6,1.3-12.1,2.2-18.1c1.7-11,8.5-18.1,19.4-20.6c7-1.6,14-2,21.1-1c10.8,1.5,16.3,7.2,16.3,18.2
	c0,10.9-0.7,21.8-2,32.6c-2.6,21.9-5.5,43.8-8.9,65.6c-3.2,20.3-7.2,40.5-11.1,60.6c-3.3,16.8-7.2,33.5-10.4,50.4
	c-1.9,9.8-0.4,19.4,4.2,28.4c5.9,11.3,20.4,16.6,31.4,11.7c-0.7-7.5-1.7-14.9-2-22.4c-0.9-27.5,3.5-53.7,20.1-76.5
	c16-22,38-34,65-36.5c36-3.3,66.3,9.6,92.4,33.5c6.5,6,12,13.2,17.9,19.8c0.4,0.4,0.8,0.8,1.2,1.3c17.7-28.2,42.1-45.9,75.7-49.5
	c0.4-5.8,5.2-44.9,8.8-58.5c4.5-16.9,8.4-33.9,13.6-50.6c6.8-21.6,17-41.6,31.5-59.2c8-9.7,17.1-17.9,29-22.6
	c6.1-2.4,12.4-3.3,18.9-2.6c8.9,1,15.4,6,20.2,13.2c5.7,8.4,8,18,9.2,27.9c3.2,26.7-0.4,52.8-8.3,78.2
	c-8.4,26.7-17.4,53.3-27.3,79.5c-7.1,18.8-16,36.9-24.2,55.3c-5.8,13-10.6,26.2-12.5,40.4c-1.4,10.2-1.7,20.4,0.8,30.5
	c0.6,2.4,1.5,4.8,2.8,6.9c2.7,4.8,6.5,6.5,12,5.6c6.6-1,12.6-3.7,18.2-7.2c7.5-4.7,14.8-9.9,22.1-14.9c0.7-0.5,1.3-1.6,1.2-2.4
	c-1.7-13.7,0.3-27.1,3.7-40.3c4.4-17.7,10.1-34.8,20-50.3c9.9-15.6,22.6-28,40.4-34.2c15.1-5.3,30.4-4.9,45.1,1.4
	c24.2,10.2,34.6,36.5,24.3,60.7c-3.1,7.1-6.7,14-12.3,19.6c-5.5,5.5-14.9,7.3-22.1,4.3c-5-2.1-6.6-6.7-7.3-11.4
	c-0.5-2.8,0.1-5.8,0.7-8.6c1.4-7.1,4.2-13.9,3.2-21.3c-0.3-2-0.5-4-0.9-5.9c-0.5-2.4-2.1-3.4-4.5-3.4c-10.1-0.1-17.4,5-22.9,13
	c-5.4,7.7-8.1,16.5-11.1,25.3c-5.3,15.9-7.1,32.1-5.6,48.8c0.6,6.8,2.1,13.3,5.5,19.3c7.6,13.4,20.3,18.7,35.5,14.9
	c7.5-1.9,14.3-5.5,20.8-9.5c13.7-8.3,25.9-18.5,37-29.9c0.8-0.8,1.1-2.5,1.1-3.8c-0.4-19.6,1.4-39,9.3-57.2
	c13.4-30.8,36.5-49.7,69.8-55.1c10.5-1.9,26.4,3.5,37.5,12.8c14.1,11.7,20.9,28,21.1,28.5c7.2,15.3,9.3,32.7,9.6,49.5
	c0.5,28.4-7.7,53.9-25.3,76.1c-10.8,13.6-24.6,23.3-41.8,26.9c-29.9,6.3-54.4-5.5-68.8-33C959.7,346.5,958.2,342.8,956.5,339.2z
	 M455.6,303.4c0.6,5.4,0.8,10.8,1.7,16.1c1.4,8.2,4.4,15.8,11.2,21.1c7.9,6.2,21.3,9.4,30.3-2.4c3.7-4.8,7.3-9.8,9.8-15.3
	c8.3-18.1,11.6-37.4,11.1-57.3c-0.2-9.7-1.6-19.3-6.4-28c-6.6-11.9-18.9-14.5-29.7-6.2c-5.4,4.1-9.5,9.4-12.9,15.1
	C460.4,264.1,456.1,283.2,455.6,303.4z M994.6,303.3c0.6,5.5,0.8,11,1.7,16.3c1.4,8,4.3,15.4,10.9,20.8c7.8,6.3,21.5,9.8,30.7-2.3
	c3.7-4.8,7.2-9.9,9.7-15.3c8.3-18.1,11.5-37.3,11.1-57.1c-0.2-9.8-1.6-19.4-6.4-28.2c-6.5-11.8-18.9-14.3-29.6-6.1
	c-6,4.6-10.4,10.5-14,17C999.2,265.4,995.2,283.8,994.6,303.3z M684.6,225.2c-0.6,0.1-0.8,0-0.9,0.1c-0.5,0.2-1.1,0.5-1.6,0.8
	c-14.3,7.7-25.8,18.3-33.3,32.8c-6.5,12.6-11,26-15.2,39.5c-2.5,8-4.1,16.1-4,24.5c0.1,7.6,3.6,12.7,10.8,15
	c9.4,3,18.1,2.1,25.9-4.6c4-3.4,10.2-10.2,14.3-19.2c4.7-10.2,5.8-24.8,5.8-26.2c-0.4-17.1-0.9-30.4-1.3-47.5
	C685.1,235.3,684.8,230.3,684.6,225.2z M732.7,233.5c0.2,0,0.3,0,0.5,0c0.3-0.8,0.7-1.5,1-2.3c13.3-31,24.3-62.7,34.2-95
	c7.4-24.2,11.7-48.8,11.2-74.2c-0.1-3.6-0.7-7.3-1.7-10.8c-1.3-4.4-4.7-6.5-8.9-4c-0.6,0.2-8.3,8.7-13.8,23.5
	c-7.4,20-13.3,48.7-14.8,57.4c-4.8,28.8-7.2,58-7.7,87.2C732.6,221.4,732.7,227.5,732.7,233.5z"/>
</svg>
